<svg xmlns="http://www.w3.org/2000/svg" width="22" height="22" viewBox="0 0 16 16" fill="#a5a7aa">
  <path d="M 6.124 11.259 L 6.946 11.259 L 12.226 6.065 L 11.404 5.256 L 6.541 10.052 L 4.318 7.865 L 3.496 8.673 L 6.124 11.259 Z"/>
  <path d="M 8.822 0.017 C 10.674 0.131 12.411 1.042 13.684 2.295 C 15.189 3.89 16 5.826 16 8.104 C 16 9.926 15.305 11.635 14.147 13.116 C 12.99 14.482 11.369 15.507 9.517 15.849 C 7.664 16.191 5.812 15.963 4.191 15.052 C 2.57 14.141 1.297 12.774 0.602 11.065 C -0.093 9.357 -0.208 7.421 0.37 5.712 C 0.949 3.89 1.991 2.409 3.612 1.384 C 5.117 0.359 6.97 -0.097 8.822 0.017 Z M 9.401 14.71 C 10.906 14.368 12.295 13.571 13.337 12.318 C 14.263 11.065 14.842 9.585 14.726 7.99 C 14.726 6.168 14.032 4.345 12.758 3.092 C 11.6 1.953 10.211 1.27 8.59 1.156 C 7.085 1.042 5.465 1.384 4.191 2.295 C 2.918 3.206 1.991 4.459 1.528 6.054 C 1.065 7.534 1.065 9.129 1.76 10.61 C 2.454 12.09 3.496 13.229 4.886 14.027 C 6.275 14.824 7.896 15.052 9.401 14.71 Z"/>
</svg>
