<svg xmlns="http://www.w3.org/2000/svg" viewBox="0 0 16 16" width="16" height="16">
  <path fill="#3b5998" d="M 15.117 0 L 0.884 0 C 0.396 0 0 0.396 0 0.884 L 0 15.117 C 0 15.604 0.396 16 0.884 16 L 8 16 L 10.667 16 L 15.117 16 C 15.604 16 16 15.604 16 15.117 L 16 0.884 C 16 0.396 15.604 0 15.117 0 Z"/>
  <path fill="white" d="M 10.667 16 L 8 16 L 8 9.667 L 6.088 9.667 L 6.088 7.334 L 8 7.334 L 8 5.609 C 8 3.542 9.434 2.417 11.279 2.417 C 12.163 2.417 13.113 2.484 13.334 2.513 L 13.334 4.671 L 11.863 4.671 C 10.859 4.671 10.667 5.146 10.667 5.846 L 10.667 7.334 L 13.059 7.334 L 12.746 9.667 L 10.667 9.667 L 10.667 16 Z"/>
</svg>
