<svg xmlns="http://www.w3.org/2000/svg" viewBox="0 0 16 16" width="16" height="16">
  <path fill="currentColor" d="M 15.36 0 L 0.64 0 C 0.286 0 0 0.286 0 0.64 L 0 15.36 C 0 15.714 0.286 16 0.64 16 L 15.36 16 C 15.714 16 16 15.714 16 15.36 L 16 0.64 C 16 0.286 15.714 0 15.36 0 Z M 13.512 4.67 L 12.234 4.67 C 11.232 4.67 11.038 5.146 11.038 5.846 L 11.038 7.388 L 13.43 7.388 L 13.118 9.802 L 11.038 9.802 L 11.038 16 L 8.544 16 L 8.544 9.804 L 6.458 9.804 L 6.458 7.388 L 8.544 7.388 L 8.544 5.608 C 8.544 3.542 9.806 2.416 11.65 2.416 C 12.534 2.416 13.292 2.482 13.514 2.512 L 13.514 4.67 L 13.512 4.67 Z"/>
</svg>
