<svg xmlns="http://www.w3.org/2000/svg" viewBox="0 0 100 100" width="24" height="24" fill="#fff">
  <rect width="28" height="10" x="67" y="45" rx="5" ry="5" transform="rotate(-90 50 50)" opacity="0"/>
  <rect width="28" height="10" x="67" y="45" rx="5" ry="5" transform="rotate(-45 50 50)" opacity="0.125"/>
  <rect width="28" height="10" x="67" y="45" rx="5" ry="5" transform="rotate(0 50 50)" opacity="0.25"/>
  <rect width="28" height="10" x="67" y="45" rx="5" ry="5" transform="rotate(45 50 50)" opacity="0.375"/>
  <rect width="28" height="10" x="67" y="45" rx="5" ry="5" transform="rotate(90 50 50)" opacity="0.5"/>
  <rect width="28" height="10" x="67" y="45" rx="5" ry="5" transform="rotate(135 50 50)" opacity="0.625"/>
  <rect width="28" height="10" x="67" y="45" rx="5" ry="5" transform="rotate(180 50 50)" opacity="0.75"/>
  <rect width="28" height="10" x="67" y="45" rx="5" ry="5" transform="rotate(225 50 50)" opacity="0.875"/>
</svg>
